<?xml version="1.0" encoding="UTF-8"?>
<svg version="1.1" xmlns="http://www.w3.org/2000/svg" width="1024" height="1024">
<path d="M0 0 C337.92 0 675.84 0 1024 0 C1024 337.92 1024 675.84 1024 1024 C686.08 1024 348.16 1024 0 1024 C0 686.08 0 348.16 0 0 Z " fill="#002F40" transform="translate(0,0)"/>
<path d="M0 0 C4.0226217 1.56435288 5.59149109 2.38723663 8 6 C8.85758087 14.48737698 7.58260653 23.14006837 6.5390625 31.55859375 C6.38843353 32.82357193 6.23780457 34.08855011 6.08261108 35.39186096 C5.68388078 38.73308823 5.2794414 42.07351048 4.87164307 45.41363525 C4.14738077 51.35667249 3.43705717 57.30139798 2.7265625 63.24609375 C2.57479553 64.51214447 2.42302856 65.77819519 2.2666626 67.08261108 C1.00578885 77.70707509 -0.06105724 88.34262999 -1 99 C-0.74458435 98.48590576 -0.4891687 97.97181152 -0.22601318 97.44213867 C11.53516026 73.8327794 11.53516026 73.8327794 23 69 C27.57907419 68.15287128 31.0831669 68.54158345 35.25 70.625 C41.74243161 76.23210003 45.29352978 81.75006371 46.27075195 90.39526367 C46.36549737 92.85439463 46.36473517 95.2896755 46.3125 97.75 C46.29775635 99.05662598 46.29775635 99.05662598 46.28271484 100.38964844 C46.08892414 110.1878515 44.59180742 119.55841581 42 129 C42.33 128.67 42.66 128.34 43 128 C43.54011719 127.55527344 44.08023437 127.11054687 44.63671875 126.65234375 C53.30701317 119.40232613 57.12931614 113.36526199 60.04248047 102.57080078 C63.98383815 88.37510166 71.63654722 76.54535044 84.60546875 69.19140625 C90.86682251 66.07605079 95.13560076 65.48191171 102 67 C106.44903106 69.26496127 108.85869463 71.4919887 111 76 C113.8000658 85.5519975 111.69262533 94.39516436 107 103 C101.73332664 110.43130026 94.98537519 116.60409049 87 121 C86.33871094 121.37898437 85.67742187 121.75796875 84.99609375 122.1484375 C83 123 83 123 79 123 C79.24499632 132.07711356 79.53944505 140.83257008 84 149 C87.73845444 151.49230296 90.67432657 151.86202828 95 151 C106.47212932 145.16408122 113.324767 132.9924978 119 122 C119.37833984 121.2692627 119.75667969 120.53852539 120.14648438 119.78564453 C127.48489667 105.42115733 132.67957168 91.03519868 135 75 C133.3603125 73.9171875 133.3603125 73.9171875 131.6875 72.8125 C128.43230101 70.66284029 126.70176308 68.52654517 125 65 C124.02432492 58.62734742 124.31967436 52.36043782 127.68359375 46.7578125 C130.70771637 42.71966657 133.40629678 39.56331992 138.5 38.45703125 C142.80873186 38.21979453 145.36057219 38.62913187 149.125 40.8125 C152.96163129 47.3347732 151.35289261 54.11578189 149.55834961 61.12744141 C148.75260485 64.10027667 147.89126707 67.05165669 147 70 C147.67160156 70.11730469 148.34320312 70.23460937 149.03515625 70.35546875 C152.57902225 71.1258744 155.99580914 72.1835705 159.4375 73.3125 C160.08009766 73.51294922 160.72269531 73.71339844 161.38476562 73.91992188 C165.76865254 75.35748073 169.3214216 77.22025976 173 80 C176.68614271 87.37228542 173.31326883 99.13018404 172.125 106.875 C171.86396484 108.64037109 171.86396484 108.64037109 171.59765625 110.44140625 C170.9041737 115.11085544 170.20465601 119.77736725 169.42529297 124.43334961 C168.34831488 130.96258897 167.7271214 137.19777663 167.875 143.8125 C167.88853516 145.01229492 167.88853516 145.01229492 167.90234375 146.23632812 C167.92535407 148.15769005 167.96118974 150.07889227 168 152 C169.72476911 152.95502158 169.72476911 152.95502158 172 153 C176.62460899 149.39162675 179.09257625 144.77429428 181.75 139.625 C182.17539062 138.8100708 182.60078125 137.9951416 183.0390625 137.15551758 C188.14515845 127.11233292 192.19497448 116.59570835 196 106 C196.34224609 105.15783936 196.68449219 104.31567871 197.03710938 103.44799805 C198.46812013 98.32371688 198.78252593 93.17323692 199.21875 87.8828125 C199.32215698 86.71168915 199.42556396 85.5405658 199.53210449 84.33395386 C199.86162295 80.5981985 200.18182616 76.86173756 200.5 73.125 C200.81846566 69.39543466 201.13918202 65.66614638 201.46789551 61.93746948 C201.67212487 59.62071535 201.87057134 57.30344191 202.06237793 54.98562622 C202.57898309 49.12240244 203.37870384 43.66168275 205 38 C204.06824951 38.0165564 204.06824951 38.0165564 203.11767578 38.03344727 C200.62017747 38.07522903 198.12271955 38.09987926 195.625 38.125 C194.73554687 38.14175781 193.84609375 38.15851563 192.9296875 38.17578125 C191.65351562 38.18544922 191.65351562 38.18544922 190.3515625 38.1953125 C189.17327881 38.21102295 189.17327881 38.21102295 187.97119141 38.22705078 C186 38 186 38 184 36 C184.55555556 31.44444444 184.55555556 31.44444444 186 30 C187.41327947 29.84379445 188.8335459 29.74943827 190.25390625 29.68359375 C191.10791016 29.64169922 191.96191406 29.59980469 192.84179688 29.55664062 C194.18854492 29.49766602 194.18854492 29.49766602 195.5625 29.4375 C196.91504883 29.37272461 196.91504883 29.37272461 198.29492188 29.30664062 C200.52978485 29.20021858 202.76476308 29.09820012 205 29 C205.06731323 28.08504761 205.06731323 28.08504761 205.13598633 27.15161133 C205.34815433 24.37070451 205.58013024 21.59178868 205.8125 18.8125 C205.91788086 17.37293945 205.91788086 17.37293945 206.02539062 15.90429688 C206.82189783 6.69667362 206.82189783 6.69667362 210 3 C213.03546308 0.88865253 215.78611067 0.64859378 219.4375 0.5625 C220.82775391 0.50255859 220.82775391 0.50255859 222.24609375 0.44140625 C226.24045853 1.25161074 227.62241976 2.72175651 230 6 C230.6068414 8.84491035 230.52085075 11.54311706 230.375 14.4375 C230.36082031 15.17548828 230.34664062 15.91347656 230.33203125 16.67382812 C230.21834334 20.9371249 229.71092504 24.73444976 229 29 C238.57 29 248.14 29 258 29 C258.24821827 23.72098506 258.24821827 23.72098506 258.47802734 18.44116211 C259.09098944 6.86006157 259.09098944 6.86006157 263.4375 2.625 C267.70485901 -0.0811301 271.01134936 -0.3382136 276 0 C279.98066095 1.57724302 281.60667274 2.41000911 284 6 C284.48390175 13.50047717 284.40743891 23.18512218 281 30 C281.60062256 29.99476318 282.20124512 29.98952637 282.82006836 29.98413086 C285.52586838 29.96341986 288.23165177 29.95035875 290.9375 29.9375 C291.88302734 29.92912109 292.82855469 29.92074219 293.80273438 29.91210938 C295.15141602 29.90727539 295.15141602 29.90727539 296.52734375 29.90234375 C297.77632446 29.89448853 297.77632446 29.89448853 299.05053711 29.88647461 C301 30 301 30 302 31 C302.1875 33.4375 302.1875 33.4375 302 36 C300 38 300 38 297.93701172 38.22705078 C296.69588623 38.21134033 296.69588623 38.21134033 295.4296875 38.1953125 C294.53378906 38.18886719 293.63789062 38.18242187 292.71484375 38.17578125 C291.77769531 38.15902344 290.84054687 38.14226562 289.875 38.125 C288.93011719 38.11597656 287.98523438 38.10695313 287.01171875 38.09765625 C284.67422708 38.07404522 282.33723877 38.04111516 280 38 C280.0203833 39.145896 280.0407666 40.29179199 280.06176758 41.47241211 C280.05918023 45.86002013 279.6015647 50.09887663 279.01171875 54.44140625 C278.79897212 56.07737956 278.58632993 57.71336645 278.3737793 59.34936523 C278.26158051 60.19908905 278.14938171 61.04881287 278.03378296 61.92428589 C274.82815345 86.34690556 271.72749487 110.64183548 271.75 135.3125 C271.75059418 136.04193817 271.75118835 136.77137634 271.75180054 137.5229187 C271.32831882 144.99265348 271.32831882 144.99265348 273 152 C275.99695621 151.66768205 277.61115367 151.36308096 279.84594727 149.27636719 C283.8842667 143.84595443 287.12075645 138.39978253 289.9375 132.25 C290.35717041 131.34749512 290.77684082 130.44499023 291.20922852 129.51513672 C298.35966767 113.89426057 303.97274917 98.82216478 306.47265625 81.77734375 C307.61223432 74.50894246 307.61223432 74.50894246 310 71.375 C313.81274339 68.75373892 316.35619121 68.69041275 321 69 C324.98066095 70.57724302 326.60667274 71.41000911 329 75 C329.046875 78.20410156 329.046875 78.20410156 328.75 82.140625 C328.6977124 82.84721252 328.6454248 83.55380005 328.59155273 84.28179932 C327.97552625 92.13310457 327.00449395 99.94069418 326 107.75 C323.63902389 125.93930485 323.63902389 125.93930485 322.9375 144.25 C322.95103516 146.17585938 322.95103516 146.17585938 322.96484375 148.140625 C322.97644531 149.08421875 322.98804688 150.0278125 323 151 C332.30601891 146.07536443 335.5150679 135.05668342 339.0625 125.6875 C339.4944165 124.55320557 339.92633301 123.41891113 340.37133789 122.25024414 C344.75386337 110.43687564 347.80632105 98.49283543 349.8203125 86.0625 C349.94801025 85.28140869 350.07570801 84.50031738 350.20727539 83.69555664 C350.43596993 82.24181382 350.64749572 80.78521252 350.83764648 79.32592773 C351.30989362 76.15636964 351.90187444 74.13315532 353.81640625 71.53515625 C357.04405331 69.26598757 358.99323506 69.78110654 362.7421875 70.375 C366.45452483 71.40263663 369.26235082 73.26235082 372 76 C372.26520708 79.9500254 372.18967385 83.91722927 372.1875 87.875 C372.18814453 89.07487549 372.18878906 90.27475098 372.18945312 91.51098633 C372.12663596 102.47757904 371.37390848 113.34001054 370.4375 124.26171875 C370.05157612 128.86491628 369.91066544 133.38252005 370 138 C379.59370697 124.59249841 388.36755459 110.62080261 396 96 C398.475 96.495 398.475 96.495 401 97 C402.32599501 99.97231466 401.95802094 101.11317883 400.8046875 104.22265625 C400.17878635 105.51116631 399.53404603 106.79062392 398.875 108.0625 C398.51881592 108.76004395 398.16263184 109.45758789 397.7956543 110.17626953 C394.81774468 115.81803426 391.4173146 121.11638298 387.8125 126.375 C386.98842651 127.58313354 386.98842651 127.58313354 386.14770508 128.81567383 C383.42014522 132.74648801 380.62346269 136.50496702 377.484375 140.1171875 C366.95284089 152.59817896 365.01167998 165.89093802 362.58105469 181.52148438 C359.52348338 199.82580201 352.64428761 219.70869072 337.921875 231.69140625 C332.69940152 235.24735872 326.04107076 234.51334222 320 234 C315.03669759 231.91018846 312.80325741 228.93189135 310.69140625 224.125 C307.96971328 215.76002272 311.0345033 206.1293886 314.6640625 198.50390625 C320.39709548 187.77488148 328.37762689 175.64041248 338.70483398 168.88476562 C341.76582479 166.7148694 343.65934693 165.07563353 344.81347656 161.43139648 C345.29782109 158.32645767 345.5902264 155.25954958 345.8125 152.125 C346.02309028 149.88929018 346.23402825 147.65361309 346.4453125 145.41796875 C346.5371582 144.32790527 346.62900391 143.2378418 346.72363281 142.11474609 C347.09998611 137.87312477 347.63024449 133.65847684 348.1875 129.4375 C348.34605469 128.17808594 348.50460937 126.91867187 348.66796875 125.62109375 C348.77753906 124.75613281 348.88710938 123.89117188 349 123 C348.6596875 123.98097656 348.319375 124.96195313 347.96875 125.97265625 C345.37848013 133.25523318 342.56515675 140.29112467 338.9375 147.125 C338.62167969 147.72707275 338.30585937 148.32914551 337.98046875 148.94946289 C334.47421422 155.37190811 330.17935118 161.50948864 323 164 C316.73803535 165.09482062 312.12845662 164.15138642 306.7890625 160.77734375 C302.27413658 156.29199158 300.76578592 152.55028269 300.609375 146.28515625 C300.63571889 144.21057516 300.68306595 142.13616837 300.75 140.0625 C300.76804687 138.99708984 300.78609375 137.93167969 300.8046875 136.83398438 C300.85154443 134.22171071 300.91713074 131.61133774 301 129 C300.5153125 130.01578125 300.030625 131.0315625 299.53125 132.078125 C286.72590909 158.54400222 286.72590909 158.54400222 274.4375 165.4375 C269.3001456 166.62304332 265.50298676 166.58853497 260.875 164 C255.19522737 160.07038987 252.26472195 155.05953382 250.75 148.375 C249.68914726 141.96985136 249.35460042 135.4761235 249 129 C248.25556641 130.52367187 248.25556641 130.52367187 247.49609375 132.078125 C234.0113306 159.50583893 234.0113306 159.50583893 223.4375 165.4375 C217.49502472 166.80884045 213.11116327 166.17147748 207.85546875 163.25390625 C201.91239389 159.23763882 199.47615063 153.74416319 198 147 C197.14717027 141.6895556 196.55778793 136.34820195 196 131 C195.73372803 131.52843506 195.46745605 132.05687012 195.19311523 132.60131836 C180.73237894 161.13381053 180.73237894 161.13381053 169 167 C163.04298055 167.55713132 158.04791601 167.52180186 153 164 C146.5388476 157.73197987 146.80570541 152.10552382 146.65820312 143.4855957 C146.64518679 142.05291351 146.63416588 140.620212 146.625 139.1875 C146.61666138 138.10243668 146.61666138 138.10243668 146.6081543 136.99545288 C146.5504614 121.99797753 148.63180542 107.68685287 151.54101562 93.00317383 C152.01275369 89.9165515 152.23923643 87.11538372 152 84 C149.78508316 82.13749195 149.78508316 82.13749195 147 81 C146.236875 80.608125 145.47375 80.21625 144.6875 79.8125 C143.8521875 79.4103125 143.8521875 79.4103125 143 79 C142.87625 80.16144531 142.7525 81.32289063 142.625 82.51953125 C139.28956012 108.90772487 124.24435194 139.59696061 104 157 C97.15387315 162.10742797 89.71229131 165.25356709 81 164 C73.11324766 161.8175025 66.79299142 158.3805172 62.34375 151.40234375 C58.48181498 144.21800875 56.46966617 136.9929213 55 129 C54.52691406 129.44730469 54.05382812 129.89460937 53.56640625 130.35546875 C50.04479114 133.575035 46.94332517 136.13431991 42.5625 138.0625 C36.85989028 140.99723375 34.31064807 146.33122082 31.10546875 151.6171875 C25.93669068 159.92175487 19.26298316 164.73546172 10 168 C4.69628176 168.89189613 0.63549145 168.83377995 -4.1875 166.375 C-6 164 -6 164 -6.4375 160.9375 C-6 158 -6 158 -4 155 C-2.046875 154.515625 -2.046875 154.515625 0.25 154.25 C4.66789696 153.33400861 6.77966994 152.10092457 9.46484375 148.48828125 C16.26843024 137.46058509 20.50645139 126.70723642 23 114 C23.19464844 113.07445312 23.38929688 112.14890625 23.58984375 111.1953125 C24.17642818 106.62554043 24.14425588 102.10215492 24.125 97.5 C24.12886719 96.57574219 24.13273437 95.65148437 24.13671875 94.69921875 C24.13002384 90.0194739 23.96646438 85.60221134 23 81 C11.97839272 86.91403318 7.00502229 100.12845653 2 111 C1.43925781 112.17691406 0.87851562 113.35382813 0.30078125 114.56640625 C-4.07494031 124.78377121 -5.41060002 135.26471939 -6.62011719 146.23706055 C-6.7596582 147.45433838 -6.89919922 148.67161621 -7.04296875 149.92578125 C-7.15664795 151.02317627 -7.27032715 152.12057129 -7.38745117 153.2512207 C-8.04841123 156.21724272 -8.50741874 157.30141917 -11 159 C-16.56514499 159.54739131 -20.23761185 159.21184317 -25 156 C-28.53640022 151.8538756 -28.66906758 147.23786144 -29 142 C-29.4125 142.68964844 -29.825 143.37929688 -30.25 144.08984375 C-36.1893675 153.75457345 -42.30305438 162.486177 -52.875 167.3125 C-57.72448705 168.37938715 -61.75152204 168.39044821 -65.99609375 165.765625 C-70.1693082 162.39928985 -72.5263929 159.51287617 -73.265625 154.02978516 C-75.07677464 130.3389417 -69.74104052 106.28462628 -66 83 C-82.58956683 99.47224797 -90.50109126 121.6530004 -96.78564453 143.76416016 C-97.0432959 144.66312012 -97.30094727 145.56208008 -97.56640625 146.48828125 C-97.79400635 147.30466064 -98.02160645 148.12104004 -98.25610352 148.9621582 C-99 151 -99 151 -101 153 C-105.57006001 153.78605032 -109.22713733 153.35130122 -113.4375 151.4375 C-117.62092939 147.45814034 -117.94493773 143.68357059 -118.12890625 138.05859375 C-118.08501642 132.07189959 -117.29304677 126.18458083 -116.5625 120.25 C-115.17752838 108.50153658 -114.3674217 96.820843 -114 85 C-129.95294696 105.73883105 -138.75732386 133.06396345 -145.26171875 158.15234375 C-146.15896524 160.39783365 -147.09880627 161.51035879 -149 163 C-153.30676344 163.97249497 -155.71561199 164.5137552 -159.8125 162.875 C-162.99408334 160.14792856 -164.80558393 157.52926705 -165.34057617 153.32104492 C-165.32486572 152.38365479 -165.30915527 151.44626465 -165.29296875 150.48046875 C-165.28330078 149.45888672 -165.27363281 148.43730469 -165.26367188 147.38476562 C-165.23853516 146.32966797 -165.21339844 145.27457031 -165.1875 144.1875 C-165.17396484 143.11306641 -165.16042969 142.03863281 -165.14648438 140.93164062 C-165.11122577 138.28724545 -165.06194366 135.64388252 -165 133 C-165.60585938 133.89460937 -166.21171875 134.78921875 -166.8359375 135.7109375 C-175.17589531 147.82757512 -184.69406661 161.04622338 -200 164 C-208.39623879 165.00507463 -214.96312182 162.49525236 -221.6875 157.5 C-228.61473575 151.16882872 -232.546526 140.51235924 -233.30078125 131.34375 C-233.36184436 111.31504872 -228.7151747 91.08363568 -214.5625 76.125 C-209.12332426 71.03949264 -202.29466622 66.06943825 -194.6171875 65.96875 C-189.08876252 66.29880522 -185.17971487 67.11883619 -181 71 C-177.12953178 76.34608423 -176.02932393 81.52222294 -177 88 C-178.79643721 96.21516793 -181.30171871 102.78489784 -187 109 C-187.86238281 110.01513672 -187.86238281 110.01513672 -188.7421875 111.05078125 C-193.90019367 116.73314904 -199.86887038 120.21093597 -207 123 C-207.99 123 -208.98 123 -210 123 C-209.84459213 136.54405986 -209.84459213 136.54405986 -205 149 C-201.22688111 151.5154126 -198.35834997 151.80908073 -194 151 C-182.43228064 146.38983031 -174.88447007 133.00490489 -169 122.6875 C-168.63841797 122.05473145 -168.27683594 121.42196289 -167.90429688 120.77001953 C-162.15493529 110.25043336 -161.18261455 99.95681917 -160.18359375 88.12890625 C-159.08116191 76.3316184 -159.08116191 76.3316184 -156 71 C-152.24171538 68.49447692 -150.46348506 68.62804291 -146 69 C-143.45113128 69.78077994 -141.38981711 70.7572951 -139 72 C-137.85509837 74.28980327 -137.8710224 75.57663669 -137.8671875 78.12109375 C-137.86525391 78.96583252 -137.86332031 79.81057129 -137.86132812 80.6809082 C-137.86583984 81.5905835 -137.87035156 82.50025879 -137.875 83.4375 C-137.87693359 84.3658667 -137.87886719 85.2942334 -137.88085938 86.25073242 C-137.93738886 95.51921303 -138.40814401 104.75225008 -139 114 C-138.8047876 113.47269287 -138.6095752 112.94538574 -138.40844727 112.40209961 C-125.92833951 79.05788593 -125.92833951 79.05788593 -112 70.0625 C-108.35014459 68.76984287 -105.84930971 68.51883629 -102 69 C-97.02469433 71.48765283 -94.95092939 73.83911121 -93 79 C-92.61686708 82.758105 -92.67229681 86.47653901 -92.75 90.25 C-92.75515625 91.23613281 -92.7603125 92.22226562 -92.765625 93.23828125 C-92.83204675 99.54004478 -93.25957387 105.7425382 -94 112 C-93.57589844 110.90042969 -93.15179688 109.80085937 -92.71484375 108.66796875 C-87.4305797 95.23192792 -81.1732009 84.4167582 -71 74 C-70.47535156 73.42765625 -69.95070313 72.8553125 -69.41015625 72.265625 C-66.58519928 69.47979486 -64.28509901 68.66480655 -60.4375 68.5 C-56.50014166 68.76336845 -54.05269242 69.35983359 -51 72 C-50.46117187 72.45632813 -49.92234375 72.91265625 -49.3671875 73.3828125 C-45.24416405 77.65925078 -44.55304624 81.73750482 -44.6484375 87.5078125 C-44.65521011 88.24477356 -44.66198273 88.98173462 -44.66896057 89.74102783 C-44.88441357 99.18307262 -46.43256867 108.44460787 -47.9375 117.75 C-48.21925231 119.55711222 -48.49985661 121.36440382 -48.77929688 123.171875 C-50.71455912 135.59781955 -50.71455912 135.59781955 -51.58203125 139.85913086 C-52.10589596 142.54240753 -52.09540148 145.08167698 -52.0625 147.8125 C-52.05347656 148.78832031 -52.04445313 149.76414062 -52.03515625 150.76953125 C-52.02355469 151.50558594 -52.01195312 152.24164062 -52 153 C-49.21530912 152.65901744 -47.44980847 152.38790823 -45.296875 150.53125 C-34.49784914 136.35071099 -25.82009792 119.11987799 -24.375 101.29296875 C-24.26238831 100.10484085 -24.14977661 98.91671295 -24.03375244 97.69258118 C-23.79566423 95.16315628 -23.5658839 92.63293739 -23.34387207 90.10205078 C-22.76259754 83.48497174 -22.11910187 76.87383714 -21.484375 70.26171875 C-21.29835724 68.29711197 -21.29835724 68.29711197 -21.10858154 66.29281616 C-20.02980528 54.99997964 -18.7227211 43.74765408 -17.25 32.5 C-17.14913086 31.71764984 -17.04826172 30.93529968 -16.94433594 30.12924194 C-13.86272094 6.29408142 -13.86272094 6.29408142 -10.875 1.8125 C-7.18565062 -0.51339417 -4.19246608 -0.76301242 0 0 Z " fill="#FBFCFC" transform="translate(589,430)"/>
<path d="M0 0 C2.5 1 2.5 1 4.13671875 3.328125 C6.06096882 8.51091887 5.89667452 13.26855502 5.8125 18.75 C5.81572266 19.78382813 5.81894531 20.81765625 5.82226562 21.8828125 C5.78176969 27.72895313 5.27972172 33.16048726 3.95703125 38.85864258 C3.28883736 41.98937369 3.17565534 44.82142237 3.5 48 C9.2672634 55.38343435 24.67376415 58.11688564 33.44433594 59.44628906 C45.74645705 60.54124225 57.18687004 58.39292035 68.99609375 55.09375 C74.48220466 53.63639378 78.7754129 53.04189606 83.875 55.875 C86.5 58 86.5 58 87.5 60 C87.62785561 62.17282257 87.69076761 64.34956098 87.72460938 66.52587891 C87.73599945 67.19607056 87.74738953 67.86626221 87.75912476 68.5567627 C87.86988903 75.57681207 87.91723093 82.59791313 87.95996094 89.61865234 C87.98220388 92.9460024 88.02392046 96.27222505 88.08300781 99.59912109 C88.1543049 103.62160636 88.19082334 107.64303396 88.20307922 111.66611862 C88.21344719 113.19473515 88.23579428 114.7233218 88.27067566 116.25157547 C88.56140426 129.68831003 88.56140426 129.68831003 84.24804688 134.84912109 C77.90827668 140.98232937 69.78559527 143.11143452 61.20187378 143.15390015 C59.90663284 143.16250061 58.61139191 143.17110107 57.27690125 143.17996216 C55.84329264 143.18439708 54.4096836 143.18869547 52.97607422 143.19287109 C51.46463331 143.20077581 49.95319428 143.20904499 48.4417572 143.21765137 C43.47941887 143.2438323 38.51707227 143.25917671 33.5546875 143.2734375 C31.84368001 143.2787991 30.13267258 143.28417662 28.42166519 143.28956985 C21.30149249 143.31119426 14.18132202 143.32992889 7.0611248 143.34119225 C-3.12783616 143.35741833 -13.31641503 143.3905684 -23.50523198 143.44759309 C-30.67738407 143.48635909 -37.84943426 143.50583289 -45.02168834 143.51111281 C-49.30116363 143.51475763 -53.58023101 143.5266855 -57.85959244 143.55921555 C-61.88987363 143.58941328 -65.9195026 143.59556682 -69.94987297 143.58383179 C-71.42280325 143.58361201 -72.89576484 143.5918369 -74.3685894 143.60948563 C-84.4872709 143.72406104 -92.15113454 142.61371333 -99.97265625 135.8671875 C-100.49730469 135.20976563 -101.02195312 134.55234375 -101.5625 133.875 C-102.11035156 133.21242188 -102.65820312 132.54984375 -103.22265625 131.8671875 C-105.85595951 128.01789405 -105.65345077 124.4342778 -105.70874023 119.90161133 C-105.71852402 119.1825058 -105.7283078 118.46340027 -105.73838806 117.72250366 C-105.7683028 115.34236489 -105.78971917 112.96228228 -105.80859375 110.58203125 C-105.81516558 109.7673255 -105.8217374 108.95261974 -105.82850838 108.11322594 C-105.86108849 103.79872753 -105.88553984 99.48425364 -105.9050293 95.16967773 C-105.92282251 91.60681015 -105.95761142 88.04473701 -106.00756836 84.48217773 C-106.06791434 80.17329197 -106.09852459 75.86514109 -106.10820198 71.55585289 C-106.11673506 69.91842787 -106.13550023 68.28102136 -106.1649456 66.64383888 C-106.42779301 51.19456598 -106.42779301 51.19456598 -101.10919189 45.36499023 C-98.50694869 43.15764842 -95.89890747 41.63392357 -92.8125 40.1875 C-91.69488281 39.64480469 -90.57726562 39.10210938 -89.42578125 38.54296875 C-79.76330359 34.53905338 -70.73343444 33.47769912 -60.3125 33.5625 C-59.0332666 33.56862305 -57.7540332 33.57474609 -56.43603516 33.58105469 C-43.41087369 33.79601863 -32.91256909 36.6268694 -20.7734375 41.23828125 C-17.8603736 42.21430781 -15.53486559 42.53110148 -12.5 42 C-8.1801427 38.65699486 -7.63786063 33.49602037 -6.78027344 28.35546875 C-6.05940685 22.29717533 -6.0292938 16.14741839 -5.96630859 10.05200195 C-5.94648926 9.04097412 -5.92666992 8.02994629 -5.90625 6.98828125 C-5.89916016 6.07602783 -5.89207031 5.16377441 -5.88476562 4.22387695 C-5.75779297 3.48999756 -5.63082031 2.75611816 -5.5 2 C-2.5 0 -2.5 0 0 0 Z " fill="#F9FBFB" transform="translate(168.5,481)"/>
<path d="M0 0 C3.39444077 0.39065104 5.71711243 1.33283808 8.51171875 3.2890625 C14.53367599 12.2395058 9.82255107 30.07159274 8.51171875 40.2890625 C8.90101563 39.44085938 9.2903125 38.59265625 9.69140625 37.71875 C16.68660492 23.05139796 25.87585526 6.94133861 41.51171875 0.2890625 C46.95077563 -0.65140843 51.99194712 -0.45876054 56.82421875 2.3515625 C65.43758419 8.67507618 68.92912787 16.29928609 71.26171875 26.6015625 C73.06516939 53.2024594 66.55739891 79.84188998 48.91796875 100.41015625 C40.53228758 109.30144467 29.65068926 117.58615058 17.51171875 120.2890625 C16.72539062 120.47339844 15.9390625 120.65773438 15.12890625 120.84765625 C12.26950725 121.3299131 9.59700157 121.38647555 6.69921875 121.3515625 C5.23548828 121.33802734 5.23548828 121.33802734 3.7421875 121.32421875 C3.00613281 121.31261719 2.27007812 121.30101562 1.51171875 121.2890625 C1.52332031 121.8975 1.53492188 122.5059375 1.546875 123.1328125 C1.60807938 129.07838076 1.37316947 134.94668606 0.93334961 140.87548828 C0.58221732 146.03612292 0.43154042 151.19247361 0.328125 156.36328125 C0.29562845 157.8213735 0.26299366 159.27946268 0.23022461 160.73754883 C0.18088678 162.94993994 0.13674723 165.1618368 0.10842896 167.37460327 C0.08131519 169.46895732 0.03636489 171.56228749 -0.01171875 173.65625 C-0.03153809 174.88456543 -0.05135742 176.11288086 -0.07177734 177.37841797 C-0.20922363 178.33893066 -0.34666992 179.29944336 -0.48828125 180.2890625 C-4.50674167 182.96803611 -7.01192608 182.4900139 -11.69140625 181.9453125 C-16.21499039 180.88391287 -18.66509079 178.89647253 -21.48828125 175.2890625 C-25.15905514 168.11506438 -24.94894491 160.47265833 -24.86328125 152.6015625 C-24.85929321 151.92855103 -24.85530518 151.25553955 -24.85119629 150.56213379 C-24.64425196 119.9609043 -21.91973492 89.37765351 -18.26841736 59.0148468 C-17.59457343 53.35079549 -17.00999275 47.68017104 -16.44921875 42.00390625 C-16.27597215 40.27083215 -16.10271378 38.53775922 -15.92944336 36.8046875 C-15.67971924 34.30202594 -15.43267371 31.79927881 -15.19534302 29.29541016 C-13.01507231 6.34756429 -13.01507231 6.34756429 -9.03222656 1.52661133 C-6.29975111 -0.66360342 -3.35838641 -0.10786059 0 0 Z " fill="#FCFCFC" transform="translate(294.48828125,419.7109375)"/>
<path d="M0 0 C5.34588153 0.37964994 8.49112675 3.38812012 12.4375 6.6875 C13.13544678 7.26330811 13.83339355 7.83911621 14.55249023 8.43237305 C24.50580231 16.77802426 33.66228186 26.04312677 42 36 C42.804375 36.92683594 43.60875 37.85367188 44.4375 38.80859375 C66.784415 64.63798727 90.67966415 96.98818699 90.27734375 132.75 C89.17481464 145.66977771 82.98756836 156.99093426 73.68359375 165.82421875 C65.86150123 172.1661482 57.17930499 177.06181521 47 178 C48.16030379 175.63898384 49.36887505 173.3182478 50.62109375 171.00390625 C60.76259238 151.78958305 61.24654921 131.8895975 55.06933594 111.11499023 C49.96146266 94.73189863 43.54820826 79.32231239 34 65 C34.2165625 65.98613281 34.2165625 65.98613281 34.4375 66.9921875 C37.92411586 84.86109377 37.11789113 101.19052852 26.91015625 116.75732422 C20.20919604 126.35115103 11.41973318 134.10493866 2.22265625 141.23828125 C-3.88793092 146.08164647 -9.13430605 150.84259934 -10.27734375 158.97265625 C-10.5206278 164.02323313 -9.20720861 167.49729443 -7 172 C-6.67 172.99 -6.34 173.98 -6 175 C-3.99983534 176.20882096 -3.99983534 176.20882096 -2 177 C-2.33 177.99 -2.66 178.98 -3 180 C-10.27789224 180.52213283 -14.26067171 177.05738625 -20 173 C-21.2375 172.15501953 -21.2375 172.15501953 -22.5 171.29296875 C-29.34540198 166.35549131 -34.41537669 160.12642824 -37 152 C-38.69314023 134.89037242 -33.61908759 121.77712178 -22.72460938 108.43847656 C-20.90512198 106.27400583 -19.06133601 104.13114977 -17.21508789 101.98950195 C-0.37414201 82.34609244 11.65069396 59.83293778 10.23095703 33.21435547 C9.21237564 23.44846407 5.29289573 13.7975712 0.91796875 5.1015625 C0 3 0 3 0 0 Z " fill="#FCFDFD" transform="translate(137,280)"/>
<path d="M0 0 C9.57 0 19.14 0 29 0 C28.73445312 2.62066406 28.46890625 5.24132812 28.1953125 7.94140625 C28.02369039 9.64581783 27.8522028 11.35024297 27.6809082 13.0546875 C27.30940841 16.74661912 26.9321901 20.4379103 26.55151367 24.12890625 C25.37527457 35.51475451 25.37527457 35.51475451 24.60546875 46.93359375 C23.88211632 61.53025337 19.86499142 73.65437801 14 87 C13.57557617 87.97936523 13.15115234 88.95873047 12.71386719 89.96777344 C11.4617407 92.82528795 10.17884798 95.66574532 8.875 98.5 C8.30072266 99.76287842 8.30072266 99.76287842 7.71484375 101.05126953 C4.93370072 106.84648803 1.44620278 111.37020177 -3 116 C-4.875 115.8125 -4.875 115.8125 -7 115 C-9.9603185 109.59255583 -9.51328192 103.63390275 -9.5625 97.625 C-9.56811951 96.97636993 -9.57373901 96.32773987 -9.57952881 95.65945435 C-9.67085353 63.85915179 -4.23967109 31.44944855 0 0 Z " fill="#012E3E" transform="translate(817,468)"/>
<path d="M0 0 C3.84724728 1.95859862 7.08727899 4.0682957 9 8 C9.6636341 11.8564515 9.90051649 15.39241131 7.9453125 18.8828125 C6.1806644 21.04424538 4.50939153 22.74530423 2 24 C-5.03170029 24.69164265 -5.03170029 24.69164265 -9.0625 21.8125 C-11 19 -11 19 -10.9375 16.3125 C-10 14 -10 14 -8 12 C-4.875 12.375 -4.875 12.375 -2 13 C-2 14.98 -2 16.96 -2 19 C-0.68 18.34 0.64 17.68 2 17 C2 14.03 2 11.06 2 8 C-2.08440148 6.63853284 -5.73391282 6.37988575 -10 7 C-13.28944376 8.62231551 -13.28944376 8.62231551 -15 12 C-16.09750475 17.40310032 -15.92303647 22.41611394 -12.875 27.125 C-5.50335762 35.6374918 6.15379681 41.63244219 17 44 C19.75970408 44.06926968 22.49196042 44.0941736 25.25 44.0625 C25.99507813 44.05798828 26.74015625 44.05347656 27.5078125 44.04882812 C29.3385764 44.03709246 31.16929873 44.0191585 33 44 C32 47 32 47 28.75 49.0625 C23.14594869 51.73158283 17.10685742 52.29249823 11 53 C11 53.66 11 54.32 11 55 C13.80524845 56.42175092 16.63240199 57.77109884 19.5 59.0625 C20.62921875 59.57490234 20.62921875 59.57490234 21.78125 60.09765625 C26.28122973 61.92775364 30.12719635 62.18047421 35 62 C37.27637855 61.14799845 37.27637855 61.14799845 37.9296875 58.453125 C38.39761719 56.86757813 38.39761719 56.86757813 38.875 55.25 C40.2964476 50.76121811 41.60442675 47.39557325 45 44 C46.485 44.495 46.485 44.495 48 45 C49.35384615 51.27692308 49.35384615 51.27692308 47.5625 54.9375 C46.7890625 55.9584375 46.7890625 55.9584375 46 57 C51.35497319 55.3377861 56.45538611 53.42679666 61.5300293 51.04272461 C77.40520397 43.58612381 91.80346563 40.67852288 108.9375 46.1875 C117.95593944 49.46092938 124.42230489 53.86680839 129.3125 62.25 C130.6301581 67.5206324 130.02670372 72.27660448 127.25 76.9375 C123.60479803 80.27893514 121.33576134 81.04606074 116.375 80.875 C113 80 113 80 111.0625 78.375 C109.60047961 75.10695442 109.67257166 72.53622611 110 69 C110.66 68.34 111.32 67.68 112 67 C114.125 67.375 114.125 67.375 116 68 C116.79953138 71.28696233 117.09658936 72.71023192 116 76 C119.79547921 75.03223902 119.79547921 75.03223902 123 73 C123.48540603 68.22684075 123.5818509 65.98914653 121.125 61.8125 C112.76053544 53.16529297 100.62013544 51.81936129 89.25 51.625 C75.86696353 51.68546967 65.14589165 56.25076051 53.1965332 61.77099609 C41.47543465 67.15335159 31.7353554 69.16772007 19 67 C22.7935871 70.21880117 26.65829477 72.6163187 31 75 C30.67 75.66 30.34 76.32 30 77 C19.16120179 74.66788153 13.80298092 70.00580601 7.87963867 60.8371582 C6.9182608 59.32079496 5.96008564 57.80239644 5.00512695 56.28198242 C-1.9461874 44.831317 -1.9461874 44.831317 -13 38 C-19.65425475 37.2754441 -26.44865962 36.80264508 -32 41 C-36.73190345 45.64024431 -39.70044007 49.70484077 -40.3125 56.4375 C-39.85278448 61.6782569 -38.36073771 64.74131762 -34.5 68.3125 C-30.32078376 71.13347096 -26.96444628 71.3483822 -22 71 C-19.49901018 69.98009206 -19.49901018 69.98009206 -18 68 C-17.66574265 65.37374861 -17.66574265 65.37374861 -18 63 C-19.485 63.99 -19.485 63.99 -21 65 C-25.54054054 64.45945946 -25.54054054 64.45945946 -27 63 C-27.26077823 60.00105039 -27.43731576 57.81996705 -26 55.125 C-22.75027035 53.29702707 -19.56299632 53.27215056 -16 54 C-13 56.0625 -13 56.0625 -11 59 C-10.24436091 64.19501871 -11.17340021 67.61389688 -14 72 C-18.88609264 76.40940067 -21.87640607 77.35583635 -28.328125 77.28125 C-33.65522916 76.72050219 -37.47105699 74.44629744 -41.3125 70.8125 C-44.92732419 64.78779302 -47.19182881 58.0561683 -46 51 C-43.59356695 42.73504841 -38.57276225 36.80564741 -31.125 32.5625 C-26.79005093 30.56502347 -22.68915394 30.60923717 -18 31 C-18.66 29.88625 -19.32 28.7725 -20 27.625 C-22.96213823 21.6796407 -22.98525823 16.01373105 -20.9375 9.75 C-15.3679195 1.84478896 -9.57869927 -1.07410913 0 0 Z " fill="#052534" transform="translate(115,538)"/>
<path d="M0 0 C2.3125 1 2.3125 1 3.43383789 2.69921875 C10.1438051 20.26930239 3.00111242 45.05164254 -4.125 61.625 C-10.72284551 76.06830939 -19.28052393 89.43565922 -34.265625 96.15625 C-36.6875 97 -36.6875 97 -39.6875 97 C-40.33470773 65.4162626 -31.62775501 29.71585232 -9.86328125 6.12109375 C-3.58436924 0 -3.58436924 0 0 0 Z " fill="#012D3D" transform="translate(336.6875,434)"/>
<path d="M0 0 C2 1.1875 2 1.1875 3 3 C2.75546876 6.34192692 2.39456443 7.60543557 0 10 C-5.33333333 10.33333333 -5.33333333 10.33333333 -8 9 C-7.20666635 14.32927655 -7.20666635 14.32927655 -4.3125 18.5625 C2.88258315 19.92373195 8.97698249 16.54741504 15 13 C17.06504419 11.52766502 19.05807519 9.99017105 21.05078125 8.421875 C29.47077953 2.27983216 37.73148442 1.18070354 48 2 C51.5552264 2.94240298 54.83520489 4.1107759 58 6 C58.495 6.99 58.495 6.99 59 8 C58.16190796 7.93099487 58.16190796 7.93099487 57.30688477 7.8605957 C54.72650913 7.65899137 52.14493605 7.48563439 49.5625 7.3125 C48.68400391 7.23966797 47.80550781 7.16683594 46.90039062 7.09179688 C39.39208714 6.62079629 33.54758714 7.75967442 27.1484375 11.80078125 C23.84008942 15.18732665 22.10889058 19.20184111 20.0390625 23.41796875 C18 26 18 26 14.80859375 26.93359375 C10.53595532 27.00809104 6.63383622 26.62101533 2.4375 25.875 C1.70853516 25.76929688 0.97957031 25.66359375 0.22851562 25.5546875 C-5.18271761 24.61953288 -8.0918437 22.86600361 -12 19 C-13.85269921 15.29460158 -13.46444489 11.04376687 -13 7 C-10.27819859 0.53733409 -6.7355792 -0.47267222 0 0 Z " fill="#052A39" transform="translate(149,553)"/>
<path d="M0 0 C1.21042223 3.5015421 0.77550862 5.69983894 -0.2578125 9.21875 C-0.55115479 10.2281665 -0.84449707 11.23758301 -1.14672852 12.27758789 C-1.46955811 13.34098389 -1.7923877 14.40437988 -2.125 15.5 C-2.44976318 16.58337646 -2.77452637 17.66675293 -3.10913086 18.78295898 C-9.30852689 39.12965543 -9.30852689 39.12965543 -17 47 C-18.9375 46.625 -18.9375 46.625 -21 46 C-23.28058218 41.43883565 -22.54500646 35.34941974 -21.421875 30.5078125 C-17.19998059 18.80165073 -8.46349297 8.86365812 0 0 Z " fill="#042B3B" transform="translate(931,605)"/>
<path d="M0 0 C2.3125 0.8125 2.3125 0.8125 3.3125 2.8125 C3.12355067 14.52735874 -2.68721294 23.33625255 -10.44140625 31.75390625 C-13.69895745 34.73952274 -16.18510215 36.8125 -20.6875 36.8125 C-20.14555157 31.15355014 -19.08759725 26.24247341 -17.0625 20.9375 C-16.80033691 20.24567627 -16.53817383 19.55385254 -16.26806641 18.84106445 C-13.65096631 12.23984871 -8.45281281 -0.58973113 0 0 Z " fill="#022C3C" transform="translate(400.6875,507.1875)"/>
<path d="M0 0 C0.70125 0.268125 1.4025 0.53625 2.125 0.8125 C4.09499155 9.22973662 1.27626435 15.18967855 -3.0625 22.4375 C-7.07784809 28.51593564 -11.85160519 32.79690346 -17.875 36.8125 C-18.865 36.8125 -19.855 36.8125 -20.875 36.8125 C-20.18018548 25.00065316 -14.61887552 9.78178382 -5.8125 1.5625 C-2.875 -0.1875 -2.875 -0.1875 0 0 Z " fill="#042A39" transform="translate(689.875,507.1875)"/>
<path d="M0 0 C0.99 0.66 1.98 1.32 3 2 C1.82547708 5.28866417 0.06029678 7.20913984 -2.90234375 9.05078125 C-10.63069738 12.54796921 -20.78580836 14.73806388 -29 12 C-27.63600763 7.53602498 -25.90097811 5.54411616 -22 3 C-14.94617335 -0.59103902 -7.82939659 -0.76602737 0 0 Z " fill="#142D3B" transform="translate(231,565)"/>
<path d="M0 0 C0.75 1.625 0.75 1.625 1 4 C-1.60429092 8.99155759 -5.28053263 12.90443538 -10 16 C-13.4375 16.875 -13.4375 16.875 -16 17 C-15.8361264 10.2960802 -14.90901189 6.68068575 -10 2 C-6.73791081 -0.31503104 -3.93241958 -0.17874634 0 0 Z " fill="#082938" transform="translate(189,569)"/>
<path d="M0 0 C2.9375 1.5 2.9375 1.5 5 3 C3.2630859 7.13385555 1.33557431 8.38620033 -2.625 10.25 C-6.71828388 11.54261596 -10.75937186 11.31283322 -15 11 C-14.58534283 6.16233301 -12.5801385 4.14353624 -9 1 C-5.93570224 -0.53214888 -3.3834358 -0.22938548 0 0 Z " fill="#0E3341" transform="translate(174,603)"/>
<path d="M0 0 C0.99 0.33 1.98 0.66 3 1 C4.19876651 6.44893869 3.91360308 9.22169095 1 14 C1.99 15.32 2.98 16.64 4 18 C2.42274653 18.70133599 0.83788667 19.385583 -0.75 20.0625 C-1.63171875 20.44535156 -2.5134375 20.82820312 -3.421875 21.22265625 C-6.15256309 22.04600008 -7.36901347 21.9773992 -10 21 C-9.01 20.34 -8.02 19.68 -7 19 C-7.33 18.34 -7.66 17.68 -8 17 C-6.49167925 10.73537947 -4.64348859 4.64348859 0 0 Z " fill="#083847" transform="translate(160,582)"/>
<path d="M0 0 C1.31484375 0.06703125 2.6296875 0.1340625 3.984375 0.203125 C5.06203125 0.38359375 6.1396875 0.5640625 7.25 0.75 C7.91 1.74 8.57 2.73 9.25 3.75 C8.92 4.74 8.59 5.73 8.25 6.75 C0.99 6.75 -6.27 6.75 -13.75 6.75 C-13.75 7.41 -13.75 8.07 -13.75 8.75 C-16.72 8.255 -16.72 8.255 -19.75 7.75 C-19.09 6.76 -18.43 5.77 -17.75 4.75 C-16.76 4.75 -15.77 4.75 -14.75 4.75 C-14.42 3.43 -14.09 2.11 -13.75 0.75 C-9.05247907 -0.21284591 -4.78200337 -0.28351799 0 0 Z " fill="#012D3D" transform="translate(208.75,581.25)"/>
<path d="M0 0 C4.6640625 -0.28125 4.6640625 -0.28125 7.6875 2.25 C10.91236457 6.08497409 12.05370458 7.46941944 11.875 12.5625 C11 16 11 16 9.125 18 C7 19 7 19 4 18 C1.19512073 12.06660154 0.38701063 6.51245481 0 0 Z " fill="#062837" transform="translate(208,593)"/>
<path d="M0 0 C1.41778293 2.83556587 0.86257622 4.9908706 0.5625 8.125 C0.46066406 9.22070312 0.35882813 10.31640625 0.25390625 11.4453125 C0.17011719 12.28835938 0.08632812 13.13140625 0 14 C0.66 14 1.32 14 2 14 C2 11.03 2 8.06 2 5 C2.33 5 2.66 5 3 5 C3.08636719 5.72445312 3.17273438 6.44890625 3.26171875 7.1953125 C4.19946688 13.64770791 5.1141126 17.56861375 10 22 C13.8039911 24.10220561 17.71394915 24.49575872 22 25 C22 25.33 22 25.66 22 26 C18.37 26 14.74 26 11 26 C11.98267859 27.20561184 11.98267859 27.20561184 13.84765625 27.09765625 C15.8984375 27.06510417 17.94921875 27.03255208 20 27 C20.33 27.99 20.66 28.98 21 30 C14.61098252 30.45635839 10.34735488 29.62048081 5 26 C-0.00804874 21.26265659 -2.12221546 14.4870009 -2.3125 7.6875 C-2.03880062 4.45784733 -1.76896479 2.65344719 0 0 Z " fill="#081E2C" transform="translate(71,585)"/>
<path d="M0 0 C1.79296875 1.0703125 1.79296875 1.0703125 2.79296875 3.0703125 C2.23424072 3.02430908 1.6755127 2.97830566 1.09985352 2.9309082 C-1.48052212 2.72930387 -4.0620952 2.55594689 -6.64453125 2.3828125 C-7.52302734 2.30998047 -8.40152344 2.23714844 -9.30664062 2.16210938 C-18.2515394 1.60099026 -25.04595352 3.74540855 -32.20703125 9.0703125 C-32.20703125 7.7503125 -32.20703125 6.4303125 -32.20703125 5.0703125 C-31.56765625 4.8228125 -30.92828125 4.5753125 -30.26953125 4.3203125 C-29.58890625 3.9078125 -28.90828125 3.4953125 -28.20703125 3.0703125 C-28.06265625 2.4103125 -27.91828125 1.7503125 -27.76953125 1.0703125 C-27.58390625 0.4103125 -27.39828125 -0.2496875 -27.20703125 -0.9296875 C-18.80803748 -5.29964367 -8.33219142 -3.66997012 0 0 Z " fill="#04131E" transform="translate(205.20703125,557.9296875)"/>
<path d="M0 0 C2.71677989 2.5130214 3.29803569 3.67714239 3.5 7.3125 C-1.96446193 8.67861548 -4.7971537 8.19007365 -9.69921875 5.4296875 C-13.75015253 2.91652685 -13.75015253 2.91652685 -15.5 1.3125 C-15.5 0.6525 -15.5 -0.0075 -15.5 -0.6875 C-10.01928197 -2.51440601 -5.22590495 -2.51963275 0 0 Z " fill="#0A2A39" transform="translate(198.5,594.6875)"/>
<path d="M0 0 C1.53445094 3.06890187 0.54984289 5.70094266 0 9 C0.66 8.01 1.32 7.02 2 6 C2.65104167 7.7578125 3.30208333 9.515625 3.953125 11.2734375 C5.33912399 13.55930151 6.48283249 14.14289995 9 15 C11.30771459 14.9555025 11.30771459 14.9555025 13.625 14.5 C15.9765625 14.09375 15.9765625 14.09375 18 14 C18.66 14.66 19.32 15.32 20 16 C19.01 16.66 18.02 17.32 17 18 C16.67 18.99 16.34 19.98 16 21 C5.24744898 20.78954082 5.24744898 20.78954082 1.375 17.5625 C-1.78540552 14.15258878 -2.15419784 12.59825405 -2.1875 8.0625 C-2.20167969 7.18722656 -2.21585938 6.31195312 -2.23046875 5.41015625 C-2 3 -2 3 0 0 Z " fill="#061D2B" transform="translate(138,557)"/>
<path d="M0 0 C2.5625 1.5 2.5625 1.5 4 3 C3.26171875 4.94140625 3.26171875 4.94140625 2 7 C-2.38745474 8.6352428 -6.79892216 8.38974765 -11.0625 6.5625 C-12.031875 6.046875 -13.00125 5.53125 -14 5 C-13 2 -13 2 -11.21875 0.83203125 C-7.51418056 -0.55718229 -3.89738415 -0.49343029 0 0 Z " fill="#153846" transform="translate(241,579)"/>
<path d="M0 0 C1.21042969 -0.00515625 2.42085937 -0.0103125 3.66796875 -0.015625 C6.8125 0.25 6.8125 0.25 9.8125 2.25 C9.1525 3.57 8.4925 4.89 7.8125 6.25 C6.8225 6.25 5.8325 6.25 4.8125 6.25 C4.8125 5.59 4.8125 4.93 4.8125 4.25 C-1.67128304 4.6751661 -6.88377769 6.05298246 -12.90234375 8.5078125 C-15.1875 9.25 -15.1875 9.25 -17.1875 8.25 C-15.5375 7.59 -13.8875 6.93 -12.1875 6.25 C-12.1875 5.59 -12.1875 4.93 -12.1875 4.25 C-13.5075 4.58 -14.8275 4.91 -16.1875 5.25 C-12.05003609 0.19309966 -6.14704841 -0.02635391 0 0 Z " fill="#04212F" transform="translate(224.1875,564.75)"/>
<path d="M0 0 C0.99 0.66 1.98 1.32 3 2 C2.38511719 2.67095703 2.38511719 2.67095703 1.7578125 3.35546875 C-1.25640074 6.73744485 -3.66050545 9.579668 -5 14 C-5.33 14 -5.66 14 -6 14 C-6.33 16.64 -6.66 19.28 -7 22 C-7.66 22 -8.32 22 -9 22 C-9.16276553 19.43493576 -9.28113984 16.88024578 -9.375 14.3125 C-9.42527344 13.59126953 -9.47554688 12.87003906 -9.52734375 12.12695312 C-9.67177408 6.85524617 -9.67177408 6.85524617 -7.74316406 4.39990234 C-5.29974245 2.30025217 -3.05293033 1.01764344 0 0 Z " fill="#092F3E" transform="translate(80,577)"/>
<path d="M0 0 C4.71403788 0.47939368 8.66579301 0.96834048 13 3 C12.01 3.33 11.02 3.66 10 4 C9.67 4.99 9.34 5.98 9 7 C9.66 7.66 10.32 8.32 11 9 C10.27039063 8.86722656 9.54078125 8.73445312 8.7890625 8.59765625 C-0.79229716 6.97710529 -10.30224343 6.4135968 -20 6 C-20 5.67 -20 5.34 -20 5 C-12.74 5 -5.48 5 2 5 C2 4.01 2 3.02 2 2 C1.34 1.34 0.68 0.68 0 0 Z " fill="#051C2A" transform="translate(215,583)"/>
<path d="M0 0 C0.99 0.99 1.98 1.98 3 3 C-3.29418357 10.89476633 -3.29418357 10.89476633 -8 13 C-9.32 13 -10.64 13 -12 13 C-12 11.02 -12 9.04 -12 7 C-11.67 7.66 -11.34 8.32 -11 9 C-10.236875 8.236875 -9.47375 7.47375 -8.6875 6.6875 C-7.800625 5.800625 -6.91375 4.91375 -6 4 C-5.46375 3.4225 -4.9275 2.845 -4.375 2.25 C-3 1 -3 1 0 0 Z " fill="#224856" transform="translate(185,573)"/>
<path d="M0 0 C0.99 0 1.98 0 3 0 C3.33 0.66 3.66 1.32 4 2 C7.465 1.505 7.465 1.505 11 1 C7.75863529 3.7103832 4.5042382 5.13944318 0.5625 6.625 C-0.54996094 7.05039062 -1.66242188 7.47578125 -2.80859375 7.9140625 C-10.62778038 10.57469149 -18.24338114 11.18220261 -26 8 C-22.73086376 6.96884721 -20.13958652 7.0361016 -16.75 7.4375 C-15.85796875 7.53933594 -14.9659375 7.64117188 -14.046875 7.74609375 C-13.37140625 7.82988281 -12.6959375 7.91367187 -12 8 C-12 7.34 -12 6.68 -12 6 C-14.31 6 -16.62 6 -19 6 C-19 5.67 -19 5.34 -19 5 C-13.06 4.505 -13.06 4.505 -7 4 C-7.99 4.99 -8.98 5.98 -10 7 C-8.53984709 6.71758359 -7.08190207 6.42373386 -5.625 6.125 C-4.81289062 5.96257813 -4.00078125 5.80015625 -3.1640625 5.6328125 C-0.81326077 5.13341068 -0.81326077 5.13341068 1 3 C0.34 2.34 -0.32 1.68 -1 1 C-0.67 0.67 -0.34 0.34 0 0 Z " fill="#0A1B29" transform="translate(161,596)"/>
<path d="M0 0 C1.3199694 2.6399388 0.85960896 4.09712163 0.44140625 7.0078125 C0.30283203 7.99394531 0.16425781 8.98007812 0.02148438 9.99609375 C-0.20571289 11.54490234 -0.20571289 11.54490234 -0.4375 13.125 C-0.58509766 14.16527344 -0.73269531 15.20554687 -0.88476562 16.27734375 C-1.25094505 18.85241199 -1.6229213 21.42650899 -2 24 C-2.33 24 -2.66 24 -3 24 C-3.33 21.36 -3.66 18.72 -4 16 C-4.67667998 17.24460783 -5.34094719 18.49596896 -6 19.75 C-6.556875 20.79414062 -6.556875 20.79414062 -7.125 21.859375 C-8.25224649 24.23167757 -8.25224649 24.23167757 -8 28 C-8.99 28.33 -9.98 28.66 -11 29 C-12.66710346 30.49985609 -12.66710346 30.49985609 -14 32 C-12.27924986 27.48524835 -10.2081809 23.16706045 -8.125 18.8125 C-5.18504018 12.62489468 -2.39832807 6.42183898 0 0 Z " fill="#091925" transform="translate(938,552)"/>
<path d="M0 0 C9.57 0 19.14 0 29 0 C28.67 2.31 28.34 4.62 28 7 C27.67 7 27.34 7 27 7 C27 5.35 27 3.7 27 2 C18.42 2 9.84 2 1 2 C1 4.97 1 7.94 1 11 C0.67 11 0.34 11 0 11 C0 7.37 0 3.74 0 0 Z " fill="#132A36" transform="translate(817,468)"/>
<path d="M0 0 C5 0 5 0 6.8125 1.5 C7.204375 1.995 7.59625 2.49 8 3 C7.67 3.66 7.34 4.32 7 5 C6.34 5 5.68 5 5 5 C5.99 6.485 5.99 6.485 7 8 C7.125 10.6875 7.125 10.6875 7 13 C5.35 13.33 3.7 13.66 2 14 C1.34 9.38 0.68 4.76 0 0 Z " fill="#2D505C" transform="translate(208,593)"/>
<path d="M0 0 C0.99 0.33 1.98 0.66 3 1 C1.125 6.75 1.125 6.75 0 9 C0 9.99 0 10.98 0 12 C-1 14.1875 -1 14.1875 -2 16 C-3.32 16 -4.64 16 -6 16 C-5.82774538 9.09415557 -4.41875491 5.32516617 0 0 Z " fill="#0B2A38" transform="translate(160,582)"/>
<path d="M0 0 C-3.36472899 3.85145079 -7.04976626 4.45772087 -12 5 C-15.07763025 4.87930862 -17.94846473 4.48437068 -21 4 C-14.41542754 -1.36520719 -8.20274966 -1.98854537 0 0 Z " fill="#082B3A" transform="translate(229,572)"/>
<path d="M0 0 C0.99 0.33 1.98 0.66 3 1 C3.33 2.98 3.66 4.96 4 7 C5.32 7 6.64 7 8 7 C8 7.99 8 8.98 8 10 C-0.24444444 10.62222222 -0.24444444 10.62222222 -3.125 8.25 C-4 6 -4 6 -3.875 3.875 C-3 2 -3 2 0 0 Z " fill="#093343" transform="translate(108,551)"/>
<path d="M0 0 C2.125 0.375 2.125 0.375 4 1 C4.84454356 4.37817425 5.10844919 6.67465243 4 10 C5.65 10.33 7.3 10.66 9 11 C9 11.33 9 11.66 9 12 C5.6875 12.25 5.6875 12.25 2 12 C-0.53362385 9.80419266 -0.96865463 8.12055912 -1.8125 4.875 C-1.874375 3.92625 -1.93625 2.9775 -2 2 C-1.34 1.34 -0.68 0.68 0 0 Z " fill="#062C3B" transform="translate(227,605)"/>
<path d="M0 0 C1.98 0 3.96 0 6 0 C4.85923406 3.42229782 4.43315842 3.66778676 1.375 5.25 C-2.88143082 7.27833527 -5.48464735 7.12883816 -10 6 C-9.67 5.34 -9.34 4.68 -9 4 C-9.99 3.34 -10.98 2.68 -12 2 C-6.06 1.505 -6.06 1.505 0 1 C0 0.67 0 0.34 0 0 Z " fill="#042F3F" transform="translate(142,582)"/>
<path d="M0 0 C0.99 0.33 1.98 0.66 3 1 C2.34 1.4125 1.68 1.825 1 2.25 C0.34 2.8275 -0.32 3.405 -1 4 C-1 5.32 -1 6.64 -1 8 C-1.98287008 10.00847365 -2.98377342 12.00819591 -4 14 C-4.69907414 16.73572585 -4.69907414 16.73572585 -5 19 C-5.33 19 -5.66 19 -6 19 C-6 16.03 -6 13.06 -6 10 C-6.99 10.99 -7.98 11.98 -9 13 C-9 9.61579359 -8.50204985 7.57409288 -6.2578125 5.0078125 C-2.30872241 1.40589516 -2.30872241 1.40589516 0 0 Z " fill="#041C2A" transform="translate(103,539)"/>
<path d="M0 0 C1.53445094 3.06890187 0.54984289 5.70094266 0 9 C0.66 8.01 1.32 7.02 2 6 C2.52992692 7.45505358 3.0486789 8.91418127 3.5625 10.375 C3.85253906 11.18710937 4.14257812 11.99921875 4.44140625 12.8359375 C5 15 5 15 4 17 C4.66 17.66 5.32 18.32 6 19 C3.14973668 18.69461464 1.94834492 17.95551924 -0.25 16.0625 C-2.68928759 11.79374672 -2.70332744 7.82515334 -2 3 C-1.34 2.01 -0.68 1.02 0 0 Z " fill="#051823" transform="translate(138,557)"/>
<path d="M0 0 C0.33 0 0.66 0 1 0 C1.33 7.59 1.66 15.18 2 23 C2.99 21.68 3.98 20.36 5 19 C4.34496718 23.05819183 3.05440879 26.53971282 1.4375 30.3125 C0.75494141 31.91544922 0.75494141 31.91544922 0.05859375 33.55078125 C-0.46541016 34.76314453 -0.46541016 34.76314453 -1 36 C-2.24793066 32.67218491 -1.79246243 29.87957142 -1.29345703 26.42578125 C-0.69455781 21.47514679 -0.61919475 16.48022341 -0.4375 11.5 C-0.39431641 10.39140625 -0.35113281 9.2828125 -0.30664062 8.140625 C-0.20137786 5.42718494 -0.09924154 2.71366583 0 0 Z " fill="#0B141E" transform="translate(496,508)"/>
<path d="M0 0 C0.94875 0.78375 1.8975 1.5675 2.875 2.375 C7.24242401 5.54070981 11.73750706 6.29056936 17 7 C17 7.33 17 7.66 17 8 C13.37 8 9.74 8 6 8 C6.98267859 9.20561184 6.98267859 9.20561184 8.84765625 9.09765625 C10.8984375 9.06510417 12.94921875 9.03255208 15 9 C15.33 9.99 15.66 10.98 16 12 C10.38410702 12.29047722 6.90174068 12.10842092 2 9 C1.67 8.34 1.34 7.68 1 7 C1.66 7 2.32 7 3 7 C2.690625 6.401875 2.38125 5.80375 2.0625 5.1875 C1 3 1 3 0 0 Z " fill="#051724" transform="translate(76,603)"/>
<path d="M0 0 C2.375 1.3125 2.375 1.3125 3.1875 3.4375 C3.249375 4.05625 3.31125 4.675 3.375 5.3125 C0.9 6.7975 0.9 6.7975 -1.625 8.3125 C-4.16879491 6.47044162 -6.45812509 4.58771866 -8.625 2.3125 C-7.635 2.3125 -6.645 2.3125 -5.625 2.3125 C-5.625 1.6525 -5.625 0.9925 -5.625 0.3125 C-2.625 -0.6875 -2.625 -0.6875 0 0 Z " fill="#0B3242" transform="translate(230.625,586.6875)"/>
<path d="M0 0 C0.33 0 0.66 0 1 0 C1 1.65 1 3.3 1 5 C0.34 5 -0.32 5 -1 5 C-1.1546875 6.3921875 -1.1546875 6.3921875 -1.3125 7.8125 C-2 11 -2 11 -3.40625 12.25 C-5.80792475 14.88713306 -6.27888416 17.77235772 -7.1875 21.1875 C-7.53167969 22.45980469 -7.87585938 23.73210938 -8.23046875 25.04296875 C-8.48441406 26.01878906 -8.73835938 26.99460937 -9 28 C-8.34 28.33 -7.68 28.66 -7 29 C-8.32 29.33 -9.64 29.66 -11 30 C-10.46212409 24.20649322 -9.28893416 19.28762695 -7.1875 13.875 C-6.8152832 12.85986328 -6.8152832 12.85986328 -6.43554688 11.82421875 C-4.77133446 7.4456039 -2.79747562 3.76515587 0 0 Z " fill="#0B1A27" transform="translate(391,514)"/>
<path d="M0 0 C0.66 0.33 1.32 0.66 2 1 C2.4140625 3.28515625 2.4140625 3.28515625 2.625 6.0625 C2.69976562 6.98160156 2.77453125 7.90070312 2.8515625 8.84765625 C2.90054688 9.55792969 2.94953125 10.26820313 3 11 C0 13 0 13 -3 13 C-3.08121924 11.39667209 -3.13929134 9.79215974 -3.1875 8.1875 C-3.22230469 7.29417969 -3.25710937 6.40085937 -3.29296875 5.48046875 C-2.95081002 2.58352485 -2.24606427 1.77444972 0 0 Z " fill="#0F2E3D" transform="translate(96,548)"/>
<path d="M0 0 C0.66 0.33 1.32 0.66 2 1 C1.91288896 3.75150737 1.80600385 6.49981633 1.6875 9.25 C1.66494141 10.02730469 1.64238281 10.80460937 1.61914062 11.60546875 C1.41539044 15.93979093 1.22824376 18.78041105 -2 22 C-2.19350282 7.8957941 -2.19350282 7.8957941 -1 1 C-0.67 0.67 -0.34 0.34 0 0 Z " fill="#0A2C3B" transform="translate(788,501)"/>
<path d="M0 0 C-0.99 0.33 -1.98 0.66 -3 1 C-3 1.66 -3 2.32 -3 3 C-4.98 3.99 -4.98 3.99 -7 5 C-6.01 5.66 -5.02 6.32 -4 7 C-6.31 7.33 -8.62 7.66 -11 8 C-11.66 7.01 -12.32 6.02 -13 5 C-14.32 5.33 -15.64 5.66 -17 6 C-12.52065561 1.04914568 -6.56253064 -0.4921898 0 0 Z " fill="#051927" transform="translate(197,583)"/>
<path d="M0 0 C0 1.32 0 2.64 0 4 C-3.75 5.125 -3.75 5.125 -6 4 C-11.61843082 3.42669073 -15.19179587 4.72282852 -20.08203125 7.22265625 C-20.71496094 7.47917969 -21.34789062 7.73570312 -22 8 C-22.66 7.67 -23.32 7.34 -24 7 C-16.34298156 2.81181872 -8.91688011 -0.57528259 0 0 Z " fill="#3B626D" transform="translate(230,568)"/>
<path d="M0 0 C0.33 0 0.66 0 1 0 C1.22142255 1.95689659 1.4267568 3.91561952 1.625 5.875 C1.74101563 6.96554687 1.85703125 8.05609375 1.9765625 9.1796875 C1.98429688 10.11039063 1.99203125 11.04109375 2 12 C1.34 12.66 0.68 13.32 0 14 C-0.66 13.01 -1.32 12.02 -2 11 C-3.98 11.99 -3.98 11.99 -6 13 C-5.34215037 9.70319035 -4.10579427 7.15882078 -2.4375 4.25 C-1.98246094 3.45078125 -1.52742187 2.6515625 -1.05859375 1.828125 C-0.53458984 0.92320312 -0.53458984 0.92320312 0 0 Z " fill="#072130" transform="translate(560,570)"/>
<path d="M0 0 C0.33 0 0.66 0 1 0 C1.75475351 8.35619957 2.13605482 16.60995285 2 25 C1.01 24.67 0.02 24.34 -1 24 C-1.02720824 21.31243045 -1.0469388 18.62514202 -1.0625 15.9375 C-1.07087891 15.18533203 -1.07925781 14.43316406 -1.08789062 13.65820312 C-1.10808341 8.99366882 -0.77595959 4.60076827 0 0 Z " fill="#072A38" transform="translate(470,550)"/>
<path d="M0 0 C3.43202302 2.77729863 4.91022334 6.64061811 6.6875 10.5625 C7.00783203 11.24763672 7.32816406 11.93277344 7.65820312 12.63867188 C10 17.72671242 10 17.72671242 10 20 C10.66 20 11.32 20 12 20 C12.36402369 21.43503555 12.71586591 22.87316506 13.0625 24.3125 C13.25972656 25.11300781 13.45695313 25.91351563 13.66015625 26.73828125 C14 29 14 29 13 32 C12.78384033 31.44650879 12.56768066 30.89301758 12.3449707 30.32275391 C7.12077525 16.75868391 7.12077525 16.75868391 0.8125 3.6796875 C0 2 0 2 0 0 Z " fill="#061723" transform="translate(211,359)"/>
<path d="M0 0 C1.0725 0.2475 2.145 0.495 3.25 0.75 C3.58 1.74 3.91 2.73 4.25 3.75 C3.92 4.41 3.59 5.07 3.25 5.75 C1.18359375 6.1640625 1.18359375 6.1640625 -1.3125 6.375 C-2.13878906 6.44976563 -2.96507813 6.52453125 -3.81640625 6.6015625 C-4.77353516 6.67503906 -4.77353516 6.67503906 -5.75 6.75 C-6.41 5.76 -7.07 4.77 -7.75 3.75 C-5.15187156 0.32047046 -4.43092205 -0.2953948 0 0 Z " fill="#103B4B" transform="translate(108.75,538.25)"/>
<path d="M0 0 C3 2 3 2 3.73046875 4.3828125 C3.88128906 5.28773438 4.03210938 6.19265625 4.1875 7.125 C4.34605469 8.03507813 4.50460938 8.94515625 4.66796875 9.8828125 C4.83232422 10.93082031 4.83232422 10.93082031 5 12 C4.01 12 3.02 12 2 12 C-0.21585882 9.78414118 -0.40438724 8.97806378 -1 6 C-1.185625 5.0925 -1.37125 4.185 -1.5625 3.25 C-1.706875 2.5075 -1.85125 1.765 -2 1 C-1.34 0.67 -0.68 0.34 0 0 Z " fill="#053545" transform="translate(119,543)"/>
<path d="M0 0 C0.66 1.32 1.32 2.64 2 4 C-0.64 2.68 -3.28 1.36 -6 0 C-6.33 1.32 -6.66 2.64 -7 4 C-10.26954202 3.43628586 -11.82575883 2.50037734 -14 0 C-5.20866142 -2.72834646 -5.20866142 -2.72834646 0 0 Z " fill="#032939" transform="translate(199,595)"/>
<path d="M0 0 C2.99645638 0.36721279 5.99749792 0.68640534 9 1 C9 1.33 9 1.66 9 2 C6.20959495 2.38838614 3.41862114 2.76120046 0.625 3.125 C-0.1690625 3.23714844 -0.963125 3.34929688 -1.78125 3.46484375 C-3.84521885 3.72721267 -5.92339351 3.87150738 -8 4 C-8.66 3.34 -9.32 2.68 -10 2 C-7.848815 -2.30237 -3.95781728 -0.73292913 0 0 Z " fill="#0C3746" transform="translate(189,556)"/>
<path d="M0 0 C2.46008778 0.08679142 4.91643517 0.19360955 7.375 0.3125 C8.07367188 0.33505859 8.77234375 0.35761719 9.4921875 0.38085938 C11.5234375 0.48828125 11.5234375 0.48828125 15 1 C15.66 1.99 16.32 2.98 17 4 C16.67 4.99 16.34 5.98 16 7 C13.36 7 10.72 7 8 7 C9.32 6.34 10.64 5.68 12 5 C12 4.34 12 3.68 12 3 C6.06 2.01 6.06 2.01 0 1 C0 0.67 0 0.34 0 0 Z " fill="#163745" transform="translate(201,581)"/>
<path d="M0 0 C7.50769231 0.61538462 7.50769231 0.61538462 10 2.5625 C10.33 3.036875 10.66 3.51125 11 4 C10.67 4.66 10.34 5.32 10 6 C6.7 6 3.4 6 0 6 C-1 2 -1 2 0 0 Z " fill="#133D4C" transform="translate(88,569)"/>
<path d="M0 0 C1.65 0.33 3.3 0.66 5 1 C5 2.32 5 3.64 5 5 C5.2981424 6.34164079 5.62243192 7.67851173 6 9 C5.34 8.67 4.68 8.34 4 8 C4 7.34 4 6.68 4 6 C0.7 5.01 -2.6 4.02 -6 3 C-6 2.67 -6 2.34 -6 2 C-4.02 2 -2.04 2 0 2 C0 1.34 0 0.68 0 0 Z " fill="#052432" transform="translate(113,540)"/>
<path d="M0 0 C0.598125 0.33 1.19625 0.66 1.8125 1 C4.05386471 2.20787988 4.05386471 2.20787988 7 2 C10.46093483 3.00943933 12.98365923 3.98910615 16 6 C15.67 6.66 15.34 7.32 15 8 C8.60543632 6.47275469 4.20584541 5.18720934 0 0 Z " fill="#0D1C28" transform="translate(130,607)"/>
<path d="M0 0 C-0.33 1.65 -0.66 3.3 -1 5 C-3.64 5.66 -6.28 6.32 -9 7 C-9.33 5.68 -9.66 4.36 -10 3 C-3.375 0 -3.375 0 0 0 Z " fill="#EEF2F3" transform="translate(173,598)"/>
<path d="M0 0 C1.21236328 0.02707031 1.21236328 0.02707031 2.44921875 0.0546875 C3.37154297 0.08949219 3.37154297 0.08949219 4.3125 0.125 C2.26016315 2.3727975 1.30582739 3.1272242 -1.6875 4.125 C-3.41545352 4.19302967 -5.14585365 4.20995645 -6.875 4.1875 C-8.22658203 4.17396484 -8.22658203 4.17396484 -9.60546875 4.16015625 C-10.29253906 4.14855469 -10.97960937 4.13695312 -11.6875 4.125 C-10.7903125 3.691875 -10.7903125 3.691875 -9.875 3.25 C-3.36585366 -0.09756098 -3.36585366 -0.09756098 0 0 Z " fill="#061D2B" transform="translate(170.6875,609.875)"/>
<path d="M0 0 C0.33 0 0.66 0 1 0 C1 6.27 1 12.54 1 19 C0.67 19 0.34 19 0 19 C-0.33 16.03 -0.66 13.06 -1 10 C-1.99 10.33 -2.98 10.66 -4 11 C-3.52269162 9.5410574 -3.04308958 8.08286504 -2.5625 6.625 C-2.29566406 5.81289063 -2.02882813 5.00078125 -1.75390625 4.1640625 C-1 2 -1 2 0 0 Z " fill="#071724" transform="translate(838,557)"/>
<path d="M0 0 C-0.33 0.99 -0.66 1.98 -1 3 C-3.64 3.33 -6.28 3.66 -9 4 C-9.33 2.35 -9.66 0.7 -10 -1 C-5.92224809 -1.9267618 -3.57818963 -2.33958553 0 0 Z " fill="#083241" transform="translate(188,589)"/>
<path d="M0 0 C0.33 0 0.66 0 1 0 C1.33 4.62 1.66 9.24 2 14 C1.01 14.66 0.02 15.32 -1 16 C-1.22281874 14.08496326 -1.42771076 12.16783494 -1.625 10.25 C-1.74101563 9.18265625 -1.85703125 8.1153125 -1.9765625 7.015625 C-2.00029475 3.96207601 -1.61420985 2.53837579 0 0 Z " fill="#073647" transform="translate(934,566)"/>
<path d="M0 0 C-0.66 1.32 -1.32 2.64 -2 4 C-2.99 4 -3.98 4 -5 4 C-5 3.34 -5 2.68 -5 2 C-7.64 1.34 -10.28 0.68 -13 0 C-13 -0.33 -13 -0.66 -13 -1 C-4.57142857 -2.42857143 -4.57142857 -2.42857143 0 0 Z " fill="#123342" transform="translate(234,567)"/>
<path d="M0 0 C1.3271261 3.9813783 1.06915913 7.85045227 1 12 C-0.32 12.33 -1.64 12.66 -3 13 C-3.21261427 8.53510027 -2.64459552 5.15985925 -1 1 C-0.67 0.67 -0.34 0.34 0 0 Z " fill="#0C3647" transform="translate(140,554)"/>
<path d="M0 0 C4.11583349 3.50608038 6.90567018 8.04628837 9 13 C8.67 13.66 8.34 14.32 8 15 C6.68 13.02 5.36 11.04 4 9 C3.01 9.495 3.01 9.495 2 10 C1.34 6.7 0.68 3.4 0 0 Z " fill="#0D1C28" transform="translate(170,344)"/>
<path d="M0 0 C0.99 0.66 1.98 1.32 3 2 C1.68 2.99 0.36 3.98 -1 5 C-1 4.34 -1 3.68 -1 3 C-1.66 3 -2.32 3 -3 3 C-3.33 4.65 -3.66 6.3 -4 8 C-4.99 8 -5.98 8 -7 8 C-6.4376049 4.73810844 -5.5859495 3.08865152 -3 1 C-2.01 0.67 -1.02 0.34 0 0 Z " fill="#0C3546" transform="translate(80,577)"/>
<path d="M0 0 C3.96 0.33 7.92 0.66 12 1 C12 1.99 12 2.98 12 4 C11.01 4.495 11.01 4.495 10 5 C9.1646875 4.566875 9.1646875 4.566875 8.3125 4.125 C5.27057165 2.64514296 2.33926563 2.38529988 -1 2 C-0.67 1.34 -0.34 0.68 0 0 Z " fill="#063546" transform="translate(82,610)"/>
<path d="M0 0 C2.46800047 1.15173355 4.04783565 2.04783565 6 4 C5.67 4.99 5.34 5.98 5 7 C2.13275314 6.42655063 1.1385485 6.1385485 -1 4 C-0.625 1.875 -0.625 1.875 0 0 Z " fill="#082F3E" transform="translate(74,604)"/>
<path d="M0 0 C0.66 0.33 1.32 0.66 2 1 C1.50769231 8.50769231 1.50769231 8.50769231 -1.0625 11 C-2.0215625 11.495 -2.0215625 11.495 -3 12 C-2.67 10.68 -2.34 9.36 -2 8 C-2.66 7.67 -3.32 7.34 -4 7 C-3.525625 6.5875 -3.05125 6.175 -2.5625 5.75 C-0.83733482 3.817815 -0.43415125 2.51807725 0 0 Z " fill="#081E2E" transform="translate(162,584)"/>
<path d="M0 0 C1.98 0.495 1.98 0.495 4 1 C3.67 1.66 3.34 2.32 3 3 C0.9375 3.625 0.9375 3.625 -1 4 C-0.67 2.68 -0.34 1.36 0 0 Z M-4 4 C-1.69 4.33 0.62 4.66 3 5 C2.01 5.33 1.02 5.66 0 6 C0 6.66 0 7.32 0 8 C-2.97 7.505 -2.97 7.505 -6 7 C-5.34 6.01 -4.68 5.02 -4 4 Z " fill="#0B3545" transform="translate(195,582)"/>
<path d="M0 0 C0.12375 0.61875 0.2475 1.2375 0.375 1.875 C0.87197356 4.19120832 0.87197356 4.19120832 3 6 C0 8 0 8 -4 8 C-3.40072174 4.64404172 -2.15377564 2.62198774 0 0 Z " fill="#254451" transform="translate(163,605)"/>
<path d="M0 0 C-1 3 -1 3 -4 5 C-5.32 5 -6.64 5 -8 5 C-8.33 4.01 -8.66 3.02 -9 2 C-5.5647952 -0.29013653 -4.014669 -0.17842973 0 0 Z " fill="#122D3B" transform="translate(148,582)"/>
<path d="M0 0 C0 0.99 0 1.98 0 3 C-1.64453125 4.60546875 -1.64453125 4.60546875 -3.8125 6.1875 C-4.52019531 6.71730469 -5.22789062 7.24710938 -5.95703125 7.79296875 C-8 9 -8 9 -11 9 C-11 8.34 -11 7.68 -11 7 C-9.02636281 5.23782394 -7.52513574 4.12730563 -4.9375 3.5 C-2.55854725 2.88607671 -1.58886185 1.82719113 0 0 Z " fill="#091D29" transform="translate(185,577)"/>
<path d="M0 0 C0.66 0.33 1.32 0.66 2 1 C4.32873375 1.68255989 6.66182791 2.35050775 9 3 C8.67 3.66 8.34 4.32 8 5 C5.35139573 5.59355614 2.70802678 5.74209269 0 6 C-0.66 4.68 -1.32 3.36 -2 2 C-1.34 1.34 -0.68 0.68 0 0 Z " fill="#073546" transform="translate(143,571)"/>
<path d="M0 0 C0.33 0 0.66 0 1 0 C1.33 7.26 1.66 14.52 2 22 C-1 19 -1 19 -1.2487793 16.9152832 C-1.19117432 16.13499756 -1.13356934 15.35471191 -1.07421875 14.55078125 C-1.01943359 13.70322266 -0.96464844 12.85566406 -0.90820312 11.98242188 C-0.79895508 10.66081055 -0.79895508 10.66081055 -0.6875 9.3125 C-0.62626953 8.41982422 -0.56503906 7.52714844 -0.50195312 6.60742188 C-0.34874168 4.40353414 -0.18091866 2.20175794 0 0 Z " fill="#0D3A4A" transform="translate(339,445)"/>
<path d="M0 0 C0.28875 0.598125 0.5775 1.19625 0.875 1.8125 C2.04742026 4.19327792 2.04742026 4.19327792 4 7 C4 8.32 4 9.64 4 11 C3.01 11 2.02 11 1 11 C-0.20272819 8.59454362 -0.10071472 7.05003047 -0.0625 4.375 C-0.05347656 3.55773437 -0.04445312 2.74046875 -0.03515625 1.8984375 C-0.02355469 1.27195312 -0.01195312 0.64546875 0 0 Z " fill="#04202E" transform="translate(209,594)"/>
<path d="M0 0 C0.28875 0.61875 0.5775 1.2375 0.875 1.875 C1.93720042 4.13325765 1.93720042 4.13325765 4 6 C3.34 7.98 2.68 9.96 2 12 C-0.125 9.9375 -0.125 9.9375 -2 7 C-1.25 3.1875 -1.25 3.1875 0 0 Z " fill="#203A48" transform="translate(581,580)"/>
<path d="M0 0 C0.33 0 0.66 0 1 0 C2 7.625 2 7.625 2 11 C0.5 12.6875 0.5 12.6875 -1 14 C-1.18451025 4.58997722 -1.18451025 4.58997722 0 0 Z " fill="#19262F" transform="translate(959,555)"/>
<path d="M0 0 C0.99 0.33 1.98 0.66 3 1 C1.64531705 5.87685861 -0.71675909 7.48592381 -5 10 C-5 8.68 -5 7.36 -5 6 C-4.360625 5.7525 -3.72125 5.505 -3.0625 5.25 C-0.81258459 4.18437567 -0.81258459 4.18437567 -0.25 1.875 C-0.1675 1.25625 -0.085 0.6375 0 0 Z " fill="#031F2D" transform="translate(178,557)"/>
<path d="M0 0 C1.9375 0.75 1.9375 0.75 4 2 C4.75 4.125 4.75 4.125 5 6 C3.68 6 2.36 6 1 6 C0.34 4.35 -0.32 2.7 -1 1 C-0.67 0.67 -0.34 0.34 0 0 Z " fill="#013244" transform="translate(237,595)"/>
<path d="M0 0 C-0.99 0.33 -1.98 0.66 -3 1 C-3 1.66 -3 2.32 -3 3 C-4.65 3.66 -6.3 4.32 -8 5 C-8.99 4.01 -9.98 3.02 -11 2 C-7.17010894 0.19769832 -4.21878192 -0.19622241 0 0 Z " fill="#092533" transform="translate(197,583)"/>
<path d="M0 0 C0.33 0 0.66 0 1 0 C1 4.29 1 8.58 1 13 C0.01 12.67 -0.98 12.34 -2 12 C-2.28571429 3.42857143 -2.28571429 3.42857143 0 0 Z " fill="#17414F" transform="translate(961,543)"/>
<path d="M0 0 C0.66 0 1.32 0 2 0 C2.36923077 6.52307692 2.36923077 6.52307692 0.5 8.9375 C0.005 9.288125 -0.49 9.63875 -1 10 C-2.125 8.3125 -2.125 8.3125 -3 6 C-1.7 1.7 -1.7 1.7 0 0 Z " fill="#133745" transform="translate(521,513)"/>
<path d="M0 0 C0.99 0.99 1.98 1.98 3 3 C2.34 3.66 1.68 4.32 1 5 C0.34 5 -0.32 5 -1 5 C-1.33 4.34 -1.66 3.68 -2 3 C-3.65 4.32 -5.3 5.64 -7 7 C-5.54744301 3.17053157 -3.57104439 1.87949705 0 0 Z " fill="#355E69" transform="translate(185,573)"/>
<path d="M0 0 C1.32 0.66 2.64 1.32 4 2 C3.79375 2.61875 3.5875 3.2375 3.375 3.875 C3.25125 4.57625 3.1275 5.2775 3 6 C3.66 6.66 4.32 7.32 5 8 C3.125 7.875 3.125 7.875 1 7 C-0.25 3.9375 -0.25 3.9375 -1 1 C-0.67 0.67 -0.34 0.34 0 0 Z " fill="#012231" transform="translate(139,568)"/>
<path d="M0 0 C0.99 0 1.98 0 3 0 C2.67 2.97 2.34 5.94 2 9 C1.01 9 0.02 9 -1 9 C-0.67 6.03 -0.34 3.06 0 0 Z " fill="#103341" transform="translate(300,499)"/>
<path d="M0 0 C2.475 0.495 2.475 0.495 5 1 C4.625 3.4375 4.625 3.4375 4 6 C3.01 6.495 3.01 6.495 2 7 C0 2.25 0 2.25 0 0 Z " fill="#062230" transform="translate(185,569)"/>
<path d="M0 0 C0.66 1.32 1.32 2.64 2 4 C0.35 5.65 -1.3 7.3 -3 9 C-3.33 8.01 -3.66 7.02 -4 6 C-2.0625 2.8125 -2.0625 2.8125 0 0 Z " fill="#062636" transform="translate(982,547)"/>
<path d="M0 0 C0.33 0 0.66 0 1 0 C2.2019586 6.22833095 1.93161919 9.37129115 -1 15 C-2.19126781 11.42619658 -1.7349445 9.49116698 -1.0625 5.8125 C-0.86785156 4.72582031 -0.67320312 3.63914062 -0.47265625 2.51953125 C-0.31667969 1.68808594 -0.16070312 0.85664063 0 0 Z " fill="#12202A" transform="translate(304,447)"/>
<path d="M0 0 C-0.33 0.66 -0.66 1.32 -1 2 C-3.28515625 2.6328125 -3.28515625 2.6328125 -6.0625 3.125 C-6.98160156 3.29257812 -7.90070313 3.46015625 -8.84765625 3.6328125 C-9.91306641 3.81457031 -9.91306641 3.81457031 -11 4 C-11.33 3.34 -11.66 2.68 -12 2 C-10.56656 1.46809459 -9.12804633 0.94984742 -7.6875 0.4375 C-6.48673828 0.00244141 -6.48673828 0.00244141 -5.26171875 -0.44140625 C-3 -1 -3 -1 0 0 Z " fill="#E4EDEE" transform="translate(193,591)"/>
<path d="M0 0 C0.33 0 0.66 0 1 0 C1 3.63 1 7.26 1 11 C0.01 9.68 -0.98 8.36 -2 7 C-2.66 6.67 -3.32 6.34 -4 6 C-2.69593116 3.98079663 -1.36176581 1.98075027 0 0 Z " fill="#253944" transform="translate(424,561)"/>
<path d="M0 0 C1.4552777 2.9105554 0.63516661 4.95849052 0.0625 8.125 C-0.13214844 9.22070312 -0.32679688 10.31640625 -0.52734375 11.4453125 C-0.68332031 12.28835938 -0.83929687 13.13140625 -1 14 C-2.42425426 11.68624865 -3.03742624 10.42016246 -2.79296875 7.67578125 C-2.59316406 6.89589844 -2.39335938 6.11601563 -2.1875 5.3125 C-1.99542969 4.52488281 -1.80335938 3.73726562 -1.60546875 2.92578125 C-1 1 -1 1 0 0 Z " fill="#1F2B33" transform="translate(938,552)"/>
<path d="M0 0 C0.33 0 0.66 0 1 0 C1.96891192 5.37305699 1.96891192 5.37305699 2 8 C0.5625 10 0.5625 10 -1 11 C-1.66 10.67 -2.32 10.34 -3 10 C-2.01 6.7 -1.02 3.4 0 0 Z " fill="#122029" transform="translate(633,549)"/>
<path d="M0 0 C1.6396875 0.0928125 1.6396875 0.0928125 3.3125 0.1875 C2.9825 1.1775 2.6525 2.1675 2.3125 3.1875 C-0.6575 3.1875 -3.6275 3.1875 -6.6875 3.1875 C-3.6875 0.1875 -3.6875 0.1875 0 0 Z " fill="#071E2B" transform="translate(235.6875,578.8125)"/>
<path d="M0 0 C1.37553268 3.82092412 0.81309902 7.08234111 0 11 C-0.99 11.495 -0.99 11.495 -2 12 C-3.2295082 6.59016393 -3.2295082 6.59016393 -2.125 3.75 C-1.75375 3.1725 -1.3825 2.595 -1 2 C-0.67 1.34 -0.34 0.68 0 0 Z " fill="#0B3748" transform="translate(637,532)"/>
<path d="M0 0 C0.99 0 1.98 0 3 0 C2.67 3.3 2.34 6.6 2 10 C-0.4294516 6.3558226 -0.16179575 4.28758728 0 0 Z " fill="#092532" transform="translate(562,530)"/>
<path d="M0 0 C0.33 0 0.66 0 1 0 C1 3.3 1 6.6 1 10 C0.01 10 -0.98 10 -2 10 C-2.25 3.375 -2.25 3.375 0 0 Z " fill="#113948" transform="translate(299,519)"/>
<path d="M0 0 C0.33 0 0.66 0 1 0 C1 2.64 1 5.28 1 8 C0.34 8 -0.32 8 -1 8 C-1.33 9.32 -1.66 10.64 -2 12 C-2.05395478 10.37536158 -2.09277195 8.75021459 -2.125 7.125 C-2.14820313 6.22007812 -2.17140625 5.31515625 -2.1953125 4.3828125 C-2 2 -2 2 0 0 Z " fill="#082836" transform="translate(818,474)"/>
<path d="M0 0 C0.33 0 0.66 0 1 0 C0.67 4.95 0.34 9.9 0 15 C-0.33 15 -0.66 15 -1 15 C-1.22134176 12.87631556 -1.42670007 10.75095976 -1.625 8.625 C-1.74101563 7.44164062 -1.85703125 6.25828125 -1.9765625 5.0390625 C-1.98429688 4.03617187 -1.99203125 3.03328125 -2 2 C-1.34 1.34 -0.68 0.68 0 0 Z " fill="#0C394A" transform="translate(596,463)"/>
<path d="M0 0 C0.33 0.66 0.66 1.32 1 2 C0.36729133 3.34977849 -0.30062468 4.68352881 -1 6 C-1 6.66 -1 7.32 -1 8 C-1.66 8 -2.32 8 -3 8 C-3.66 9.32 -4.32 10.64 -5 12 C-4.52389341 7.00088076 -2.96837781 4.02167317 0 0 Z " fill="#091925" transform="translate(916,624)"/>
<path d="M0 0 C0.99 0.33 1.98 0.66 3 1 C1.52307692 6.66153846 1.52307692 6.66153846 -1.125 8.375 C-1.74375 8.58125 -2.3625 8.7875 -3 9 C-2.34 8.01 -1.68 7.02 -1 6 C-0.9603287 4.33380554 -0.95615553 2.66608987 -1 1 C-0.67 0.67 -0.34 0.34 0 0 Z " fill="#395B65" transform="translate(160,582)"/>
<path d="M0 0 C1.98 0.495 1.98 0.495 4 1 C4 2.32 4 3.64 4 5 C3.01 5 2.02 5 1 5 C1 4.34 1 3.68 1 3 C0.34 2.67 -0.32 2.34 -1 2 C-0.67 1.34 -0.34 0.68 0 0 Z " fill="#082432" transform="translate(240,580)"/>
<path d="M0 0 C0.99 0.66 1.98 1.32 3 2 C1.19873295 4.27528469 0.3633843 4.94682181 -2.5625 5.375 C-3.7690625 5.189375 -3.7690625 5.189375 -5 5 C-5.66 4.01 -6.32 3.02 -7 2 C-4.69 2 -2.38 2 0 2 C0 1.34 0 0.68 0 0 Z " fill="#011C29" transform="translate(97,567)"/>
<path d="M0 0 C0.99 0.99 1.98 1.98 3 3 C2.01 5.31 1.02 7.62 0 10 C-0.77321882 7.01758453 -1.41196203 4.02419525 -2 1 C-1.34 0.67 -0.68 0.34 0 0 Z " fill="#143F4F" transform="translate(119,543)"/>
<path d="M0 0 C0 3.99904969 -1.72586967 5.80200422 -4 9 C-4.99 8.34 -5.98 7.68 -7 7 C-4.69 4.69 -2.38 2.38 0 0 Z " fill="#0E2330" transform="translate(404,536)"/>
<path d="M0 0 C1.46726798 3.81489674 0.43336419 6.29011622 -1 10 C-1.185625 9.071875 -1.185625 9.071875 -1.375 8.125 C-1.87197356 5.80879168 -1.87197356 5.80879168 -4 4 C-2.68 2.68 -1.36 1.36 0 0 Z " fill="#101F29" transform="translate(931,605)"/>
<path d="M0 0 C0.33 0.99 0.66 1.98 1 3 C-0.65 3.66 -2.3 4.32 -4 5 C-4.66 3.68 -5.32 2.36 -6 1 C-4.02 0.67 -2.04 0.34 0 0 Z " fill="#073343" transform="translate(169,594)"/>
<path d="M0 0 C0.33 0.99 0.66 1.98 1 3 C-0.21484375 4.82421875 -0.21484375 4.82421875 -1.9375 6.6875 C-2.50339844 7.31011719 -3.06929688 7.93273437 -3.65234375 8.57421875 C-4.09707031 9.04472656 -4.54179687 9.51523437 -5 10 C-5.33 9.34 -5.66 8.68 -6 8 C-4.02 5.36 -2.04 2.72 0 0 Z " fill="#061825" transform="translate(322,446)"/>
<path d="M0 0 C-2.475 1.485 -2.475 1.485 -5 3 C-5 2.34 -5 1.68 -5 1 C-7.31 1 -9.62 1 -12 1 C-12 0.67 -12 0.34 -12 0 C-3.42857143 -1.28571429 -3.42857143 -1.28571429 0 0 Z " fill="#021723" transform="translate(154,601)"/>
<path d="M0 0 C1.65 0.33 3.3 0.66 5 1 C3.35 2.65 1.7 4.3 0 6 C-1.125 2.25 -1.125 2.25 0 0 Z " fill="#093545" transform="translate(173,592)"/>
<path d="M0 0 C0.66 0.33 1.32 0.66 2 1 C1.67 3.97 1.34 6.94 1 10 C-0.87376865 6.2524627 -1.3214079 4.96403081 -1 1 C-0.67 0.67 -0.34 0.34 0 0 Z " fill="#033647" transform="translate(96,548)"/>
<path d="M0 0 C-2.75 3.875 -2.75 3.875 -5 5 C-5.33 3.35 -5.66 1.7 -6 0 C-2.25 -1.125 -2.25 -1.125 0 0 Z " fill="#15303E" transform="translate(594,519)"/>
<path d="M0 0 C0.99 0.99 1.98 1.98 3 3 C2.67 3.66 2.34 4.32 2 5 C1.34 5 0.68 5 0 5 C-0.33 4.34 -0.66 3.68 -1 3 C-2.32 3.33 -3.64 3.66 -5 4 C-3.36587557 2.29159719 -2.13093906 1.06546953 0 0 Z " fill="#062331" transform="translate(170,592)"/>
<path d="M0 0 C0.33 1.32 0.66 2.64 1 4 C-0.65 4.33 -2.3 4.66 -4 5 C-4 3.68 -4 2.36 -4 1 C-2 0 -2 0 0 0 Z " fill="#012535" transform="translate(158,593)"/>
<path d="M0 0 C2.03144641 0.93446535 4.03533587 1.93224776 6 3 C6 3.33 6 3.66 6 4 C4.02 4 2.04 4 0 4 C0 3.34 0 2.68 0 2 C-0.66 1.67 -1.32 1.34 -2 1 C-1.34 0.67 -0.68 0.34 0 0 Z " fill="#112735" transform="translate(202,557)"/>
</svg>
